<svg id="Layer_1" data-name="Layer 1" xmlns="http://www.w3.org/2000/svg" viewBox="0 0 677.92 933.75"><defs><style>.cls-1{fill:#7d4a1f;}.cls-2{fill:#cb9866;}.cls-3{fill:#0b0b0b;}.cls-4{fill:none;stroke:#0f0f10;stroke-miterlimit:10;stroke-width:8.27px;}.cls-5{fill:#f59698;}</style></defs><path class="cls-1" d="M677.92,933.75h-658c.34-270.07,169.71-433.91,329-433.91S677.59,663.68,677.92,933.75Z"/><path class="cls-2" d="M521,933.75H176.83c4.2-155,79.64-278.53,172.08-278.53S516.76,778.75,521,933.75Z"/><ellipse class="cls-1" cx="333.18" cy="296.16" rx="333.18" ry="296.16"/><path class="cls-1" d="M591.48,146.9l-83.14-48A6.51,6.51,0,0,1,506,90l24-41.58a54.51,54.51,0,0,1,74.47-20h0a54.51,54.51,0,0,1,20,74.47l-24,41.57A6.51,6.51,0,0,1,591.48,146.9Z"/><path class="cls-1" d="M61.84,155.33l83.15-48a6.51,6.51,0,0,0,2.38-8.89l-24-41.58a54.52,54.52,0,0,0-74.47-20h0a54.51,54.51,0,0,0-20,74.47l24,41.57A6.51,6.51,0,0,0,61.84,155.33Z"/><circle id="righteye" class="cls-3" cx="472.91" cy="288.43" r="23.33"/><circle id="lefteye" class="cls-3" cx="193.46" cy="288.43" r="23.33"/><path class="cls-2" d="M433,446.43c0,66-46,98.71-94.13,98.71s-94.13-32.7-94.13-98.71,46-147.25,94.13-147.25S433,380.43,433,446.43Z"/><path class="cls-3" d="M311.32,354.31h55.17S343.78,430.58,311.32,354.31Z"/><path class="cls-4" d="M338.91,372.07l.16,55.06s9.71,13.67,26.35,0"/><path class="cls-4" d="M338.91,372.07l-.16,55.06s-9.72,13.67-26.35,0"/><ellipse class="cls-5" cx="148.86" cy="378.34" rx="45.44" ry="32.71"/><ellipse class="cls-5" cx="526.84" cy="378.34" rx="45.44" ry="32.71"/></svg>