<svg id="Layer_1" data-name="Layer 1" xmlns="http://www.w3.org/2000/svg" viewBox="0 0 581.79 1030.32"><defs><style>.cls-1{fill:#625f5c;}.cls-2{fill:#989089;}.cls-3{fill:#0b0b0b;}.cls-4{fill:#fff;}.cls-5{fill:#1d1d1d;}.cls-6,.cls-8{fill:none;stroke-miterlimit:10;}.cls-6{stroke:#0f0f10;stroke-width:8.27px;}.cls-7{fill:#f48b90;}.cls-8{stroke:#625f5c;stroke-width:6.2px;}</style></defs><path class="cls-1" d="M82.38,0h0a67.8,67.8,0,0,1,67.8,67.8V627.24a0,0,0,0,1,0,0H14.57a0,0,0,0,1,0,0V67.8A67.8,67.8,0,0,1,82.38,0Z"/><path class="cls-1" d="M499.42,0h0a67.8,67.8,0,0,1,67.8,67.8V627.24a0,0,0,0,1,0,0H431.62a0,0,0,0,1,0,0V67.8A67.8,67.8,0,0,1,499.42,0Z"/><path class="cls-2" d="M581.79,1030.32H0L17.51,394c0-151,122.4-273.4,273.39-273.4A273.38,273.38,0,0,1,564.29,394Z"/><circle id="lefteye" class="cls-3" cx="166.78" cy="387.36" r="14.22" transform="translate(-254.92 393.21) rotate(-67.5)"/><circle id="righteye" class="cls-3" cx="415.01" cy="387.36" r="14.22" transform="translate(-101.68 622.55) rotate(-67.5)"/><path class="cls-4" d="M402.62,536.16c0,60.25-45.18,74.05-111.72,74.05s-111.73-13.8-111.73-74.05c0-49.34,30.3-79.27,77.83-88.51a189.25,189.25,0,0,1,67.79,0C372.32,456.89,402.62,486.82,402.62,536.16Z"/><path class="cls-5" d="M324.79,447.65v12.74a33.9,33.9,0,0,1-67.79,0V447.65a189.25,189.25,0,0,1,67.79,0Z"/><path class="cls-6" d="M290.94,484.37l.18,22.2s13.88,19.52,37.63,0"/><path class="cls-6" d="M290.94,484.37l-.27,22.2s-13.88,19.52-37.62,0"/><ellipse class="cls-7" cx="471.36" cy="499.81" rx="39.74" ry="28.61"/><ellipse class="cls-7" cx="110.44" cy="499.81" rx="39.74" ry="28.61"/><line class="cls-8" x1="296.42" y1="220.47" x2="293.25" y2="186.51"/><line class="cls-8" x1="237.26" y1="204.97" x2="234.09" y2="171.01"/><line class="cls-8" x1="271.99" y1="288.72" x2="268.82" y2="254.76"/><line class="cls-8" x1="166.78" y1="734.06" x2="166.78" y2="699.95"/><line class="cls-8" x1="464.31" y1="782.25" x2="464.31" y2="748.14"/><line class="cls-8" x1="340.74" y1="790.03" x2="340.74" y2="755.93"/><line class="cls-8" x1="424.15" y1="896.45" x2="424.15" y2="862.35"/><line class="cls-8" x1="102.88" y1="799.3" x2="102.88" y2="765.2"/><line class="cls-8" x1="150.18" y1="911.7" x2="150.18" y2="877.6"/><line class="cls-8" x1="208.96" y1="799.3" x2="208.96" y2="765.2"/><line class="cls-8" x1="278.96" y1="913.51" x2="278.96" y2="879.4"/><line class="cls-8" x1="330.33" y1="171.01" x2="327.16" y2="137.06"/></svg>