<svg id="Layer_1" data-name="Layer 1" xmlns="http://www.w3.org/2000/svg" viewBox="0 0 534.37 1219.06"><defs><style>.cls-1{fill:#f7a827;}.cls-2{fill:#fbc597;}.cls-3{fill:#5b3a14;}.cls-4{fill:#b47e52;}.cls-5{fill:#0b0b0b;}.cls-6{fill:none;stroke:#0b0b0b;stroke-miterlimit:10;stroke-width:11.19px;}</style></defs><path class="cls-1" d="M151.48,151.47c-2,0-3.92,0-5.86-.11l-.49,0c-.27,0-.56,0-.83-.05A151.47,151.47,0,0,1,1.17,18.91c-.07-.47-.11-1-.17-1.43V17.4Q.33,11.72.12,5.89C0,4,0,2,0,0A151,151,0,0,1,107.1,44.36,151,151,0,0,1,151.48,151.47Z"/><path class="cls-2" d="M144.3,151.29A151.47,151.47,0,0,1,1.17,18.91,147.85,147.85,0,0,1,102.9,63.53,147.76,147.76,0,0,1,144.3,151.29Z"/><path class="cls-1" d="M382.89,151.47c2,0,3.93,0,5.86-.11l.5,0c.27,0,.55,0,.82-.05A151.47,151.47,0,0,0,533.2,18.91c.07-.47.12-1,.17-1.43V17.4q.68-5.68.89-11.51c.08-1.94.11-3.92.11-5.89A151.49,151.49,0,0,0,382.89,151.47Z"/><path class="cls-2" d="M390.07,151.29A151.47,151.47,0,0,0,533.2,18.91,148.4,148.4,0,0,0,390.07,151.29Z"/><polygon class="cls-1" points="405.96 1219.06 123.91 1219.06 145.64 912.76 155.7 771.15 171.37 550.42 177.52 463.72 338.07 463.72 345.98 551.76 349.61 592.11 362.04 730.41 403.59 1192.67 405.96 1219.06"/><rect class="cls-1" x="299.89" y="43.6" width="14.92" height="90.79"/><circle class="cls-3" cx="307.35" cy="31.59" r="19.54" transform="translate(205.99 323.47) rotate(-76.72)"/><rect class="cls-1" x="233.53" y="43.6" width="14.92" height="90.79" transform="translate(481.98 178) rotate(180)"/><circle class="cls-3" cx="240.99" cy="31.59" r="19.54" transform="translate(48.24 179.66) rotate(-45)"/><path class="cls-3" d="M205.51,840.65a73.36,73.36,0,0,1-59.87,72.11L155.7,771.15A73.42,73.42,0,0,1,205.51,840.65Z"/><circle class="cls-3" cx="261.66" cy="1078.17" r="56.15" transform="translate(-847.78 1085.11) rotate(-76.72)"/><path class="cls-3" d="M362.05,730.4a73.38,73.38,0,0,1-12.44-138.29Z"/><path class="cls-1" d="M494.64,395.66c0,151.08-76.38,157.84-227.45,157.84S39.73,546.74,39.73,395.66,116.11,85.37,267.19,85.37,494.64,244.58,494.64,395.66Z"/><circle class="cls-3" cx="284.76" cy="232.77" r="6.99"/><circle class="cls-3" cx="269.2" cy="180.63" r="8.67"/><circle class="cls-3" cx="227.39" cy="151.47" r="18" transform="translate(27.73 337.97) rotate(-76.72)"/><circle class="cls-3" cx="287.81" cy="133.47" r="14.49"/><circle class="cls-3" cx="307.35" cy="180.63" r="12.18"/><circle class="cls-3" cx="240.99" cy="207.25" r="11.44" transform="translate(-75.97 231.11) rotate(-45)"/><path class="cls-4" d="M373.35,417.61c0,30.39-48.54,69.11-108.41,69.11S156.53,448,156.53,417.61s48.54-55,108.41-55S373.35,387.22,373.35,417.61Z"/><circle id="righteye" class="cls-5" cx="351.02" cy="336.19" r="16.02"/><circle id="lefteye" class="cls-5" cx="176.01" cy="336.19" r="16.02"/><path class="cls-6" d="M211.87,396.37s15.48,16,35.92,0"/><path class="cls-6" d="M247.79,396.37s-15.47,16-35.92,0"/><path class="cls-6" d="M320.68,396.37s-15.47,16-35.92,0"/><path class="cls-6" d="M236.74,446.11s28.74,23.76,55.26,0"/></svg>