<svg id="Layer_1" data-name="Layer 1" xmlns="http://www.w3.org/2000/svg" viewBox="0 0 690.7 1080.66"><defs><style>.cls-1{fill:#f8cc13;}.cls-2{fill:#7b381e;}.cls-3{fill:#f9ae1c;}.cls-4{fill:#0b0b0b;}.cls-5{fill:#ef5050;}.cls-6{fill:#fff;}.cls-7{fill:none;stroke:#0f0f10;stroke-miterlimit:10;stroke-width:6.2px;}.cls-8{fill:#56371c;}</style></defs><path class="cls-1" d="M566,741.44l34,339.22H112.58l34-339.22c0-102.77,89.56-186.06,200-186.06H366C476.42,555.38,566,638.67,566,741.44Z"/><circle class="cls-2" cx="71.52" cy="297.26" r="71.52"/><circle class="cls-2" cx="117.72" cy="190.32" r="71.52"/><ellipse class="cls-2" cx="131.57" cy="503.84" rx="76.72" ry="79"/><ellipse class="cls-2" cx="224.33" cy="582.84" rx="76.72" ry="79"/><circle class="cls-2" cx="612.76" cy="256.07" r="71.52" transform="translate(261.85 819.9) rotate(-80.78)"/><circle class="cls-2" cx="612.76" cy="477.51" r="71.52" transform="translate(-158.18 573.15) rotate(-45)"/><circle class="cls-2" cx="541.24" cy="549.03" r="71.52"/><circle class="cls-2" cx="324.64" cy="85.36" r="85.36"/><circle class="cls-2" cx="451.28" cy="93.81" r="71.52"/><circle class="cls-2" cx="549.99" cy="153.57" r="78.62" transform="translate(310.3 671.86) rotate(-80.78)"/><circle class="cls-2" cx="629.22" cy="374.41" r="61.48" transform="translate(158.86 935.53) rotate(-80.78)"/><circle class="cls-2" cx="329.77" cy="606.96" r="61.48"/><circle class="cls-2" cx="438.1" cy="600.93" r="61.48"/><circle class="cls-2" cx="64.9" cy="414.79" r="61.48" transform="matrix(0.16, -0.99, 0.99, 0.16, -354.93, 412.42)"/><circle class="cls-2" cx="211.65" cy="119.52" r="84.83" transform="translate(-22.52 184.67) rotate(-45)"/><path class="cls-3" d="M546.57,214.09,502.8,188.82a3.42,3.42,0,0,1-1.26-4.68l12.64-21.89a28.69,28.69,0,0,1,39.2-10.5h0a28.69,28.69,0,0,1,10.5,39.2l-12.63,21.89A3.42,3.42,0,0,1,546.57,214.09Z"/><path class="cls-3" d="M168.31,213.18l43.77-25.27a3.43,3.43,0,0,0,1.25-4.69L200.7,161.34a28.71,28.71,0,0,0-39.21-10.51h0A28.71,28.71,0,0,0,151,190l12.63,21.88A3.44,3.44,0,0,0,168.31,213.18Z"/><path class="cls-3" d="M500.94,1080.66H211.65l5.23-97.33c7-130,63.32-228.7,130.55-228.7h17.71c67.21,0,123.58,98.72,130.55,228.7Z"/><path class="cls-1" d="M612.76,365c0,126.25-115.13,228.58-257.14,228.58S98.47,491.28,98.47,365c0-118.38,101.25-215.74,231-227.4,8.6-.76,17.34-1.16,26.16-1.16a292.88,292.88,0,0,1,29.66,1.5C513.32,151,612.76,247.72,612.76,365Z"/><circle id="righteye" class="cls-4" cx="461.33" cy="374.41" r="18.01" transform="translate(17.86 769.8) rotate(-80.78)"/><circle id="lefteye" class="cls-4" cx="245.65" cy="374.41" r="18.01" transform="translate(-56.8 44.18) rotate(-9.22)"/><path class="cls-5" d="M353.27,574.57h0a26.37,26.37,0,0,1-26.36-26.37V499h52.73V548.2A26.37,26.37,0,0,1,353.27,574.57Z"/><path class="cls-6" d="M400.21,410.28c-18.74,0-35.53,7.53-46.94,19.43-11.4-11.9-28.19-19.43-46.94-19.43-34.35,0-62.2,25.27-62.2,56.44s27.85,56.45,62.2,56.45c18.75,0,35.54-7.53,46.94-19.43,11.41,11.9,28.2,19.43,46.94,19.43,34.35,0,62.2-25.27,62.2-56.45S434.56,410.28,400.21,410.28Z"/><line class="cls-7" x1="432.42" y1="442.12" x2="525.41" y2="405.99"/><line class="cls-7" x1="436.89" y1="462.56" x2="539.77" y2="460.13"/><line class="cls-7" x1="435.1" y1="481.64" x2="519.59" y2="515.35"/><line class="cls-7" x1="281.66" y1="442.12" x2="202.83" y2="405.99"/><line class="cls-7" x1="353.27" y1="507.49" x2="353.27" y2="429.34"/><line class="cls-7" x1="271.59" y1="462.43" x2="172.83" y2="466.72"/><line class="cls-7" x1="272.65" y1="484.17" x2="197.59" y2="523.17"/><path class="cls-3" d="M408.56,467.66l-.83.51-.63.39a107.73,107.73,0,0,1-108.68,1.77l6.65-71.25,24.39-261.45c8.6-.76,17.34-1.16,26.16-1.16a292.88,292.88,0,0,1,29.66,1.5l18.47,261.54Z"/><path class="cls-8" d="M410.06,471.55l-.85.39-.65.3c-34.29,15.41-77.11,15.93-112.07,1.35l6.86-54.48a302.92,302.92,0,0,1,49.91-4,299.6,299.6,0,0,1,51.84,4.35Z"/></svg>