<svg id="Layer_1" data-name="Layer 1" xmlns="http://www.w3.org/2000/svg" viewBox="0 0 858.22 956.01"><defs><style>.cls-1{fill:#bdcec8;}.cls-2{fill:#e4edee;}.cls-3{fill:#aac6c8;}.cls-4{fill:#0b0b0b;}.cls-5{fill:#b3d3d4;}.cls-6{fill:none;stroke:#0f0f10;stroke-miterlimit:10;stroke-width:10.64px;}</style></defs><path class="cls-1" d="M282.16,60.86,239.33,135l-37.08-21.42a42.82,42.82,0,0,1-15.68-58.5h0a42.84,42.84,0,0,1,58.5-15.68Z"/><path class="cls-1" d="M576.06,60l42.83,74.18L656,112.73a42.82,42.82,0,0,0,15.67-58.5h0a42.82,42.82,0,0,0-58.5-15.68Z"/><path class="cls-2" d="M858.22,805.42V956H0V805.42a441.53,441.53,0,0,1,134.71-318,133.71,133.71,0,0,0,40.79-96v-124c0-54.22,14.29-104.68,39.7-146.82a256.94,256.94,0,0,1,31.73-42.22A248.43,248.43,0,0,1,272.3,54.57C314.49,20.33,368.26,0,429.11,0,490.66,0,545,20.79,587.35,55.75A252.64,252.64,0,0,1,643.92,122c24.86,41.83,38.82,91.74,38.82,145.33V391.38a133.74,133.74,0,0,0,40.77,96A441.49,441.49,0,0,1,858.22,805.42Z"/><path class="cls-3" d="M689.43,956H193.27c9.95-68.08,33-128.92,65.9-176.48,44.95-64.93,108.35-105.1,182.18-105.1C569.23,674.43,665.86,795,689.43,956Z"/><circle id="lefteye" class="cls-4" cx="318.05" cy="226.24" r="14.37"/><circle id="righteye" class="cls-4" cx="540.17" cy="226.24" r="14.37"/><path class="cls-5" d="M515,371.5c0,60.25-42,90.1-85.92,90.1s-85.92-29.85-85.92-90.1,42-120.7,85.92-120.7S515,311.26,515,371.5Z"/><path class="cls-6" d="M431,412.86l.22,22.35s8.87,12.48,24,0"/><path class="cls-6" d="M431,412.86l-.07,22.35s-8.87,12.48-24.05,0"/><ellipse class="cls-4" cx="430.07" cy="399.34" rx="27.41" ry="18.67"/></svg>