<svg id="Layer_1" data-name="Layer 1" xmlns="http://www.w3.org/2000/svg" viewBox="0 0 661.47 1097.54"><defs><style>.cls-1{fill:#cb9866;}.cls-2{fill:#7d4a1f;}.cls-3{fill:#0b0b0b;}.cls-4{fill:none;stroke:#0f0f10;stroke-miterlimit:10;stroke-width:8.27px;}</style></defs><path class="cls-1" d="M259.59,112c-5.18-1.6-10.74,1.09-13.3,5.87l-12.48,23.19a3.2,3.2,0,0,1-6-1L207.45,12C206.28,4.65,199.63-.86,192.29.11a13.47,13.47,0,0,0-11.53,15.46l4.59,28.83a3.21,3.21,0,0,1-4,3.6l-19.25-5.29c-5.22-1.44-11,.73-13.42,5.59a11.22,11.22,0,0,0,7,15.91L190,73.63a.07.07,0,0,1,0,.06L220.91,268a.05.05,0,0,0,.07,0l26.46-4.2a.08.08,0,0,0,.05-.08l-12.36-77.75s0,0,0,0l31.14-57.92A11.23,11.23,0,0,0,259.59,112Z"/><path class="cls-1" d="M380.76,126.23c5.84-1.8,12.1,1.22,15,6.6L409.8,159a3.62,3.62,0,0,0,6.76-1.14L439.51,13.47C440.82,5.24,448.32-1,456.59.13a15.17,15.17,0,0,1,13,17.41L464.41,50a3.62,3.62,0,0,0,4.53,4.06l21.69-6c5.88-1.62,12.4.83,15.12,6.3a12.65,12.65,0,0,1-7.91,17.93L459.22,83a.09.09,0,0,0-.06.06L424.35,302a.08.08,0,0,1-.09.06l-29.8-4.74a.06.06,0,0,1-.06-.08l13.93-87.61a.06.06,0,0,0,0,0l-35.08-65.26A12.64,12.64,0,0,1,380.76,126.23Z"/><path class="cls-2" d="M462.57,360.61l69.21,53.93A6.54,6.54,0,0,0,541,413.4l46.54-59.73a50.41,50.41,0,0,0-8.78-70.75h0A50.41,50.41,0,0,0,508,291.7l-46.54,59.73A6.54,6.54,0,0,0,462.57,360.61Z"/><path class="cls-1" d="M482,367.75l39.56,30.82a4.86,4.86,0,0,0,6.84-.85l45-57.73a29.94,29.94,0,0,0-5.22-42h0a30,30,0,0,0-42,5.21l-45,57.73A4.88,4.88,0,0,0,482,367.75Z"/><path class="cls-2" d="M194.45,360.61l-69.2,53.93a6.55,6.55,0,0,1-9.19-1.14L69.52,353.67a50.41,50.41,0,0,1,8.79-70.75h0a50.42,50.42,0,0,1,70.75,8.78l46.53,59.73A6.54,6.54,0,0,1,194.45,360.61Z"/><path class="cls-1" d="M175.07,367.75l-39.55,30.82a4.87,4.87,0,0,1-6.85-.85L83.7,340a29.94,29.94,0,0,1,5.21-42h0a29.94,29.94,0,0,1,42,5.21l45,57.73A4.86,4.86,0,0,1,175.07,367.75Z"/><path class="cls-2" d="M661.47,1097.54H0L88.78,434.16A227.8,227.8,0,0,1,315.35,230.05h30.77A227.8,227.8,0,0,1,572.69,434.16Z"/><path class="cls-1" d="M576.69,1097.54H77.87l7.44-71.32A227.81,227.81,0,0,1,311.89,822.09h30.78a227.8,227.8,0,0,1,226.57,204.13Z"/><circle id="lefteye" class="cls-3" cx="225.94" cy="466.63" r="11.63" transform="translate(-263.78 296.44) rotate(-45)"/><circle id="righteye" class="cls-3" cx="435.53" cy="466.63" r="11.63" transform="translate(-141.79 738.91) rotate(-72.22)"/><path class="cls-1" d="M418.65,658.66c0,61.64-42.94,92.19-87.91,92.19s-87.92-30.55-87.92-92.19,42.94-137.53,87.92-137.53S418.65,597,418.65,658.66Z"/><path class="cls-3" d="M298.14,584.93h58.29S332.43,665.51,298.14,584.93Z"/><path class="cls-4" d="M327.28,603.69l.17,58.17s10.27,14.44,27.84,0"/><path class="cls-4" d="M327.28,603.69l-.17,58.17s-10.26,14.44-27.84,0"/></svg>