<svg id="Layer_1" data-name="Layer 1" xmlns="http://www.w3.org/2000/svg" viewBox="0 0 578.76 976.4"><defs><style>.cls-1{fill:#f9ae1c;}.cls-2{fill:#7b381e;}.cls-3{fill:#fff;}.cls-4{fill:#0b0b0b;}.cls-5{fill:none;stroke:#0f0f10;stroke-miterlimit:10;stroke-width:8.27px;}</style></defs><ellipse class="cls-1" cx="464.36" cy="64.3" rx="67.67" ry="52.86" transform="matrix(0.5, -0.87, 0.87, 0.5, 176.5, 434.3)"/><ellipse class="cls-1" cx="87.55" cy="64.3" rx="52.86" ry="67.67" transform="translate(-20.42 52.39) rotate(-30)"/><path class="cls-1" d="M539.86,976.4h-501c0-70.3,6.41-137.39,18.08-198.82,4.74-25.09,10.37-49.26,16.8-72.27C117.38,549,197.62,457.53,289.36,457.53c65.67,0,125.41,40.28,170.07,128.1a571.87,571.87,0,0,1,24.27,54.91c20.47,53.37,36.15,115.31,45.67,182.93q5.11,36.33,7.81,74.7T539.86,976.4Z"/><path class="cls-2" d="M537.18,898.17,347.78,861c-2.47-1,89.54-19.26,92-20.32l89.63-17.16Q534.48,859.8,537.18,898.17Z"/><path class="cls-2" d="M153.73,767.38l-96.79,10.2c4.74-25.09,10.37-49.26,16.8-72.27l173.35,49.6C249.46,756.07,156.25,766.53,153.73,767.38Z"/><path class="cls-1" d="M578.76,326.57q0,17.4-1.32,33.32c-.24,3.16-.53,6.25-.87,9.32-.69,6.75-1.62,13.25-2.7,19.55-.1.67-.24,1.36-.37,2.05a238.25,238.25,0,0,1-13.1,46.9c-1.68,4.22-3.48,8.33-5.41,12.29-.44.9-.87,1.79-1.32,2.68a166.43,166.43,0,0,1-25.53,37.71c-1.25,1.39-2.55,2.79-3.9,4.17-.67.69-1.35,1.38-2,2.06-.47.48-.94.94-1.42,1.39-1,1-2,1.94-3,2.88-.58.54-1.14,1.06-1.73,1.58q-4.67,4.18-9.86,8.25c-.7.55-1.39,1.09-2.09,1.61s-1.51,1.15-2.29,1.73c-1.17.87-2.33,1.73-3.52,2.57l-2.45,1.73-2.88,2c-.94.63-1.87,1.26-2.82,1.88-1.47,1-3,1.92-4.5,2.88-.94.58-1.87,1.17-2.84,1.76l-.81.5c-1.26.76-2.54,1.53-3.82,2.28s-2.6,1.51-3.93,2.26q-6.18,3.5-12.75,6.83c-.69.36-1.39.71-2.1,1.06-1.66.83-3.32,1.63-5,2.44l-5.08,2.39c-1.14.53-2.29,1-3.44,1.56s-2,.91-3.07,1.35l-1,.46c-.95.41-1.92.81-2.88,1.23-1.17.49-2.33,1-3.51,1.46l-1.5.62-3.93,1.56q-2.25.89-4.54,1.76c-1.52.57-3.05,1.15-4.59,1.71l-1.9.68-3.7,1.32c-1,.35-1.93.67-2.91,1s-2,.68-3.05,1c-1.29.43-2.6.86-3.91,1.27s-2.63.83-3.94,1.25-2.44.76-3.67,1.12q-5.15,1.54-10.37,3c-1.47.4-2.94.8-4.44,1.19l-2,.49c-1.17.31-2.33.61-3.5.89l-2.77.67c-1,.24-1.94.47-2.91.69q-5.47,1.29-11,2.42c-.89.2-1.8.37-2.7.55l-.36.08-3.28.62-2.09.39c-1.37.26-2.72.51-4.09.74-9.42,1.65-18.94,3-28.5,4l-3.51.35c-9.07.87-18.18,1.43-27.27,1.64-1,0-2,.06-3,.07h-.92c-1.74,0-3.48,0-5.21,0s-3.27,0-4.89,0c-3.91,0-7.78-.17-11.64-.36l-2.91-.16c-1.82-.09-3.63-.21-5.43-.35-1-.06-2-.14-3-.24l-1.65-.13-4.18-.39-3.94-.41c-1-.11-2-.23-3.07-.37s-1.93-.22-2.89-.36-1.7-.21-2.56-.33c-1-.14-2.09-.28-3.12-.45-1.19-.16-2.38-.34-3.56-.53l-.54-.08-3.59-.59c-1.52-.26-3-.52-4.55-.8l-2.28-.42q-3.24-.62-6.45-1.3l-2.82-.59-1-.23-2.77-.61-3.24-.77q-5.6-1.32-11-2.84c-.68-.17-1.35-.36-2-.56-1.41-.39-2.79-.79-4.18-1.2-1.24-.36-2.48-.74-3.71-1.12-2.81-.87-5.61-1.76-8.37-2.69-1.38-.45-2.75-.92-4.11-1.4a.76.76,0,0,1-.16-.06L162.1,561q-7.6-2.78-14.92-5.83l-4.84-2.06-3.8-1.7h0l-3-1.37c-1-.46-2-.91-2.94-1.38l-2.92-1.41c-1.33-.64-2.64-1.28-3.94-2-1.56-.78-3.11-1.57-4.64-2.39-2.34-1.23-4.66-2.47-6.93-3.75s-4.52-2.54-6.73-3.85l-2.52-1.5c-1.09-.67-2.19-1.33-3.28-2s-2-1.25-3-1.88a4.54,4.54,0,0,1-.44-.28c-.88-.56-1.77-1.14-2.64-1.72-1.16-.75-2.31-1.51-3.45-2.29-.51-.33-1-.68-1.5-1-1.23-.85-2.45-1.69-3.66-2.56-1-.67-1.9-1.35-2.82-2l-3-2.21a242.36,242.36,0,0,1-21.67-18.25,163.59,163.59,0,0,1-28.19-35.52c-2.2-3.7-4.3-7.52-6.26-11.48C15.71,434,9,412.69,4.84,388.38c-.21-1-.37-2-.51-2.95Q2.26,372.54,1.18,358.6C.46,349.34.05,339.7,0,329.67c0-1,0-2.05,0-3.1,0-9.56.29-19.18.9-28.78.23-3.91.51-7.84.84-11.74.52-6.14,1.17-12.29,1.93-18.41a377.51,377.51,0,0,1,7.21-40.16,327.81,327.81,0,0,1,23-66.06,285.64,285.64,0,0,1,26.76-45c.47-.65,1-1.3,1.43-1.94A257.9,257.9,0,0,1,167.31,30.71q8.38-3.66,17.12-6.76c2.32-.82,4.66-1.62,7-2.37q8.52-2.79,17.34-5,3.42-.88,6.9-1.69a301.49,301.49,0,0,1,32.91-5.68l.84-.09a.24.24,0,0,1,.13,0c3.6-.4,7.23-.76,10.9-1.05q9.46-.76,19.26-.78a232,232,0,0,1,24.53,1.26c.36,0,.71,0,1.07.09,6.83.75,13.62,1.68,20.34,2.83l2.25.39c1.33.24,2.63.48,3.94.75q15,2.82,29.56,7l.37.11q11.69,3.38,23,7.63Q392,30,399,33l.08,0h0q9,3.87,17.62,8.26a295.42,295.42,0,0,1,83.74,63c3.21,3.47,6.34,7,9.38,10.67A282,282,0,0,1,544,166.17a289.16,289.16,0,0,1,17.91,42.38,303.82,303.82,0,0,1,12.91,56.93c0,.2.05.4.08.6.08.57.16,1.13.23,1.68q2,16.13,2.91,32.36c.24,4.2.4,8.42.54,12.6.12,3.9.18,7.75.18,11.62C578.76,325.07,578.76,325.82,578.76,326.57Z"/><path class="cls-3" d="M553.66,452.69a166.89,166.89,0,0,1-25.52,37.7c-45.1,50.24-148.49,91.4-248.42,91.4-93.63,0-174.52-38.69-220.24-82.19a164.21,164.21,0,0,1-28.21-35.53c-2.2-3.7-4.3-7.52-6.26-11.48.13-.24.25-.51.37-.75a167.69,167.69,0,0,1,27.38-40c45.73-49.67,149.65-89.47,249.58-88.19,93.6,1.21,174,41,219.16,85.05a164,164,0,0,1,27.74,35.89Q551.52,448.55,553.66,452.69Z"/><path class="cls-2" d="M325.66,11.4,289.39,94.69a3,3,0,0,1-5.51-.08L249.44,9.08a.25.25,0,0,1,.12,0c3.6-.41,7.22-.77,10.9-1.06q9.46-.76,19.26-.78a232,232,0,0,1,24.53,1.26c.36,0,.7,0,1.06.1C312.15,9.33,318.94,10.24,325.66,11.4Z"/><path class="cls-2" d="M208.78,16.54,187.11,66.28a3,3,0,0,1-5.52-.07l-14.28-35.5q8.38-3.66,17.12-6.76c2.32-.82,4.66-1.62,7-2.37Q200,18.79,208.78,16.54Z"/><path class="cls-2" d="M361.78,19.68l18.05,44.85a3,3,0,0,0,5.51.07l13.74-31.54h0Z"/><path class="cls-2" d="M574.87,266.08,518.4,241.44c-5.35-2.35-9.34-8.59-6.39-10l49.87-22.91a303.82,303.82,0,0,1,12.91,56.93C574.82,265.68,574.84,265.88,574.87,266.08Z"/><path class="cls-2" d="M53.1,255.15,1.74,286.05c.52-6.14,1.17-12.29,1.93-18.41a377.51,377.51,0,0,1,7.21-40.16l45.7,15C60.84,243.83,58.64,251.82,53.1,255.15Z"/><circle id="lefteye" class="cls-4" cx="159.41" cy="274.24" r="15.7"/><circle id="righteye" class="cls-4" cx="419.34" cy="274.24" r="15.7"/><path class="cls-4" d="M249.48,317.25s34.3,79,79.79,0Z"/><path class="cls-5" d="M289.42,342l.21,24.52s15.32,21.56,41.55,0"/><path class="cls-5" d="M289.42,342l-.3,24.52s-15.32,21.56-41.55,0"/></svg>