<svg id="Layer_1" data-name="Layer 1" xmlns="http://www.w3.org/2000/svg" viewBox="0 0 532.87 937.2"><defs><style>.cls-1{fill:#eb7e23;}.cls-2{fill:#0b0b0b;}.cls-3{fill:#fbc597;}.cls-4{fill:#c56128;}.cls-5{fill:none;stroke:#0f0f10;stroke-miterlimit:10;stroke-width:9.06px;}</style></defs><polygon class="cls-1" points="532.87 937.2 12.19 937.2 44.24 780.61 50.48 750.13 53.9 733.4 55.13 727.43 62.78 690.14 75.16 629.78 75.98 625.77 83.56 588.8 87.09 571.5 87.56 569.21 97.81 519.19 104.6 486.09 415.86 486.09 422.58 511.96 431.01 544.42 437.56 569.7 439.54 577.37 442.28 587.95 447.3 607.26 453.06 629.48 453.06 629.5 479.9 733.05 481.69 739.95 483.93 748.52 490.6 774.27 501.76 817.3 507.87 840.87 532.87 937.2"/><polygon class="cls-2" points="191.2 596.98 75.16 629.78 75.98 625.77 83.56 588.8 87.09 571.5 87.56 569.21 191.2 596.98"/><polygon class="cls-2" points="144.28 751.8 44.24 780.61 50.48 750.13 53.9 733.4 55.13 727.43 144.28 751.8"/><polygon class="cls-2" points="453.06 629.48 333.39 596.72 437.56 569.7 439.54 577.37 442.28 587.95 447.3 607.26 453.06 629.48"/><polygon class="cls-2" points="490.6 774.27 412.94 751.6 479.9 733.05 481.69 739.95 483.93 748.52 490.6 774.27"/><path class="cls-3" d="M437.22,881.22a146.94,146.94,0,0,1-11.05,56H118.88a146.93,146.93,0,0,1-11-56c0-85.69,73.71-155.16,164.69-155.16S437.22,795.53,437.22,881.22Z"/><path class="cls-4" d="M116.72,139h0a41,41,0,0,1-55.6-2.21L13.49,89.05A38.77,38.77,0,0,1,5.6,77.94a55.07,55.07,0,0,1,20.06-69h0a55.06,55.06,0,0,1,71.26,9.67,38.77,38.77,0,0,1,6.92,11.62L128.29,93A41,41,0,0,1,116.72,139Z"/><path class="cls-4" d="M389.17,139h0a41,41,0,0,0,55.6-2.21L492.4,89.05a38.8,38.8,0,0,0,7.9-11.11,55.08,55.08,0,0,0-20.06-69h0A55.06,55.06,0,0,0,409,18.58a38.57,38.57,0,0,0-6.92,11.62L377.6,93A41,41,0,0,0,389.17,139Z"/><path class="cls-1" d="M505.9,331.38q0,16.31-1.22,31.2c-.23,2.95-.5,5.86-.83,8.74q-1,9.45-2.52,18.3c-.1.64-.23,1.28-.35,1.92a222.31,222.31,0,0,1-12.27,43.92c-1.57,4-3.27,7.81-5.07,11.53a157.93,157.93,0,0,1-25.16,37.83c-42.23,47.06-111.91,49.4-205.52,49.4-87.7,0-154.41,0-197.24-40.78A153.54,153.54,0,0,1,29.3,460.17c-11.8-19.81-20.11-43.32-24.78-70.9-.16-.91-.33-1.84-.47-2.77q-1.92-12.06-2.93-25.12T0,334.27c0-.95,0-1.92,0-2.89q0-13.45.85-27,.82-14.16,2.6-28.26C20.62,138.42,101.52,25.57,234.92,14.85q8.87-.7,18-.72a221.47,221.47,0,0,1,24,1.28c129.21,14,207.82,123.81,225.24,258.74.1.71.2,1.43.29,2.13q1.89,15.12,2.72,30.31c.23,3.94.4,7.89.52,11.82.1,3.63.16,7.25.16,10.86C505.9,330,505.9,330.68,505.9,331.38Z"/><circle id="righteye" class="cls-2" cx="365.7" cy="220.23" r="16.78" transform="translate(89.73 545.93) rotate(-80.78)"/><circle id="lefteye" class="cls-2" cx="147.88" cy="220.23" r="16.78" transform="translate(-46.64 39.87) rotate(-13.28)"/><path class="cls-2" d="M78.42,309.58,4.52,389.27c-.16-.91-.33-1.84-.47-2.77q-1.92-12.06-2.93-25.12T0,334.27Z"/><path class="cls-2" d="M88.65,410.38,55.72,493.44A153.54,153.54,0,0,1,29.3,460.17Z"/><path class="cls-2" d="M505.87,329.27l-88.36-56,84.67.84c.1.71.2,1.43.29,2.13q1.89,15.12,2.72,30.31c.23,3.94.4,7.89.52,11.82C505.81,322,505.87,325.66,505.87,329.27Z"/><path class="cls-2" d="M501,391.54a222.31,222.31,0,0,1-12.27,43.92L443.23,357.1Z"/><path class="cls-5" d="M253,308l.23,81.32s14.36,20.2,38.92,0"/><path class="cls-5" d="M253,308l-.24,81.32s-14.35,20.2-38.92,0"/><path class="cls-3" d="M304.91,335.56l-.77.48-36.92,22.09a29.25,29.25,0,0,1-29.22.47l-37-20.55,30.5-322.84q10.66-.86,21.71-.87a267.37,267.37,0,0,1,28.86,1.54Z"/><path class="cls-2" d="M304.91,338l-.77.44-34.45,18.92a36.91,36.91,0,0,1-34.2.51L201,340.3l6.81-66.13h92.13Z"/></svg>