<svg id="Layer_1" data-name="Layer 1" xmlns="http://www.w3.org/2000/svg" viewBox="0 0 547.5 1135.18"><defs><style>.cls-1{fill:#0b0b0b;}.cls-2{fill:#f4f4f4;}.cls-3{fill:#d7d7d7;}.cls-4{fill:#fad1d6;}</style></defs><path class="cls-1" d="M547,455.89H488l58.52,10.58c-5.78,115-39.06,257.13-120.88,421.7-.52-.16-20.23-9.67-29.71-14.95-33-18.37-62.29-47.83-83.85-73.59a466.8,466.8,0,0,1-38-52l-12.5-30.18-15.49-37.38-6.57-15.92-20.44-49.33-28.37-68.53V.3S320.83-7.1,408.41,52.11c-19.73,107.31-27.14,153.38-27.14,153.38L451.58,92S512,164.83,537,304.85L465.78,343l75.33-11.68A725.83,725.83,0,0,1,547,455.89Z"/><ellipse class="cls-1" cx="351.02" cy="354.83" rx="150.09" ry="43.82" transform="translate(-144.66 413.34) rotate(-52.04)"/><path class="cls-2" d="M465.78,1135.18H69.89c2.78-231.82,90.36-417.93,198-417.93,58.06,0,110.3,54.23,146.5,140.6,6.53,15.49,12.51,32,17.91,49.44a703.94,703.94,0,0,1,21,88.28q2.44,14.13,4.43,28.68A897.14,897.14,0,0,1,465.78,1135.18Z"/><path class="cls-3" d="M311.23,1135.18H92.85c6.69-169.38,53-300.53,109.18-300.53S304.55,965.8,311.23,1135.18Z"/><path class="cls-2" d="M435.45,525.47c0,64.07-9.54,118.28-27.16,162.08-35.2,87.6-102.68,133.58-190.57,133.58S62.33,775.15,27.13,687.5C9.54,643.69,0,589.51,0,525.47q0-30.32,2.83-58.61c1.26-13.23,3-26.11,5.19-38.58,12.14-69.83,37.72-127.55,73.89-167.69a197.81,197.81,0,0,1,39.74-34.12c28.13-18.22,60.42-28.08,96.07-28.08A182.68,182.68,0,0,1,241,199.86a170.81,170.81,0,0,1,53.76,15.88c59.35,28.65,103.07,91.46,124.93,176.36q4.1,15.69,7.13,32.35A566.81,566.81,0,0,1,435.45,525.47Z"/><path class="cls-4" d="M408.3,687.55c-35.21,87.6-102.68,133.58-190.57,133.58S62.34,775.15,27.14,687.5c3.8-3.6,7.68-7.08,11.69-10.46a256,256,0,0,1,52.34-34.11c37.07-18.21,79.61-28.1,126.56-28.1,10.43,0,20.6.53,30.59,1.5a280.9,280.9,0,0,1,70.83,15.88A257,257,0,0,1,408.3,687.55Z"/><circle id="lefteye" class="cls-1" cx="140.93" cy="517.53" r="20.45" transform="translate(-324.67 251.23) rotate(-45)"/><circle id="righteye" class="cls-1" cx="294.5" cy="517.53" r="20.45" transform="translate(-279.69 359.83) rotate(-45)"/><path class="cls-1" d="M294.72,215.74l-44,83.47L241,199.86A170.87,170.87,0,0,1,294.72,215.74Z"/><path class="cls-1" d="M432.26,907.29,351,910.62l63.33-52.77C420.88,873.34,426.86,889.86,432.26,907.29Z"/><path class="cls-1" d="M457.68,1024.25H375l78.21-28.68Q455.7,1009.7,457.68,1024.25Z"/><path class="cls-1" d="M142.53,308.38,81.92,260.59a197.81,197.81,0,0,1,39.74-34.12Z"/><path class="cls-1" d="M438.72,424.45q4.09,15.69,7.13,32.35L351,452.52"/><path class="cls-1" d="M73.46,454.12,2.84,466.86Q4.73,447,8,428.28Z"/><circle class="cls-1" cx="193.39" cy="672.44" r="8.65"/><circle class="cls-1" cx="242.07" cy="672.44" r="8.65"/></svg>